<svg xmlns="http://www.w3.org/2000/svg" viewBox="0 0 1600 900">
  <defs>
    <symbol id="leaf-lanceolate" viewBox="-60 -160 120 320">
      <path d="M0,-150 C 35,-120 55,-80 58,-35 C 60,10 40,60 0,150 C -40,60 -60,10 -58,-35 C -55,-80 -35,-120 0,-150 Z" stroke="#004d35" fill="none" stroke-width="1.2"/>
      <path d="M0,-150 L0,150" stroke="#004d35" fill="none" stroke-width="1.2"/>
    </symbol>
    <symbol id="leaf-elliptic" viewBox="-70 -130 140 260">
      <path d="M0,-120 C 45,-105 70,-65 70,0 C 70,65 45,105 0,120 C -45,105 -70,65 -70,0 C -70,-65 -45,-105 0,-120 Z" stroke="#006747" fill="none" stroke-width="1.2"/>
      <path d="M0,-120 L0,120" stroke="#006747" fill="none" stroke-width="1.2"/>
    </symbol>
    <symbol id="leaf-serrated" viewBox="-70 -150 140 300">
      <path d="M0,-140 C 50,-120 70,-70 65,-20 C 62,20 40,70 0,140 C -40,70 -62,20 -65,-20 C -70,-70 -50,-120 0,-140 Z" stroke="#004d35" fill="none" stroke-width="1.2"/>
      <path d="M0,-140 L0,140" stroke="#004d35" fill="none" stroke-width="1.2"/>
    </symbol>
    <symbol id="leaf-compound" viewBox="-90 -160 180 320">
      <path d="M0,-150 L0,150" stroke="#006747" fill="none" stroke-width="1.2"/>
      <path d="M0,-110 C30,-105 50,-90 60,-70 C50,-65 30,-55 0,-52 C-30,-55 -50,-65 -60,-70 C-50,-90 -30,-105 0,-110 Z" stroke="#006747" fill="none" stroke-width="1.2"/>
    </symbol>
  </defs>
  <use href="#leaf-lanceolate" transform="translate(220,160) rotate(-12) scale(0.8)" />
  <use href="#leaf-elliptic" transform="translate(520,140) rotate(8) scale(0.9)" />
  <use href="#leaf-serrated" transform="translate(860,180) rotate(-5) scale(0.75)" />
  <use href="#leaf-compound" transform="translate(1240,160) rotate(10) scale(0.85)" />
  <use href="#leaf-lanceolate" transform="translate(360,420) rotate(4) scale(1.0)" />
  <use href="#leaf-elliptic" transform="translate(700,420) rotate(-7) scale(1.05)" />
  <use href="#leaf-serrated" transform="translate(1040,420) rotate(6) scale(0.95)" />
  <use href="#leaf-compound" transform="translate(200,720) rotate(12) scale(0.9)" />
  <use href="#leaf-elliptic" transform="translate(560,720) rotate(-10) scale(1.0)" />
  <use href="#leaf-lanceolate" transform="translate(920,720) rotate(3) scale(1.1)" />
  <use href="#leaf-serrated" transform="translate(1280,720) rotate(-8) scale(0.9)" />
</svg>
